<?xml version="1.0" encoding="UTF-8"?>
<svg id="Layer_1" data-name="Layer 1" xmlns="http://www.w3.org/2000/svg" viewBox="0 0 668.05 784.46">
  <defs>
    <style>
      .cls-1 {
        fill: #fff;
      }
    </style>
  </defs>
  <path d="M340.22,2.35l326.93,385.86c2.52,6.08-.69,9.22-4.1,13.65-105.91,121.16-206.52,247.07-312.44,368.2-5.31,6.07-12.17,18.11-21.02,13.3L1.63,398.05c-5.81-8.24,5.37-17.63,10.59-23.98C114.37,249.76,222.39,130.11,324.67,5.87c5.1-5.21,8.25-8.24,15.55-3.52ZM333.33,23.16L20.8,392.28l312.55,369.12,313.44-369.12L333.33,23.16Z"/>
  <polygon class="cls-1" points="333.33 23.16 646.79 392.28 333.35 761.4 20.8 392.28 333.33 23.16"/>
</svg>